<mxfile host="65bd71144e">
    <diagram id="ZSHq0pJPqs6ZMsepr9IL" name="Seite-1">
        <mxGraphModel dx="1587" dy="787" grid="1" gridSize="10" guides="1" tooltips="1" connect="1" arrows="1" fold="1" page="1" pageScale="1" pageWidth="50" pageHeight="50" background="#808080" math="0" shadow="0">
            <root>
                <mxCell id="0"/>
                <mxCell id="1" parent="0"/>
                <mxCell id="28" value="" style="rounded=0;whiteSpace=wrap;html=1;" parent="1" vertex="1">
                    <mxGeometry x="30" y="40" width="760" height="400" as="geometry"/>
                </mxCell>
                <mxCell id="QLBxTetBfzA6RJk5GTU--46" value="" style="shape=ext;double=1;rounded=1;whiteSpace=wrap;html=1;labelPosition=center;verticalLabelPosition=middle;align=center;verticalAlign=middle;" vertex="1" parent="1">
                    <mxGeometry x="700" y="170" width="70" height="185" as="geometry"/>
                </mxCell>
                <mxCell id="QLBxTetBfzA6RJk5GTU--45" value="" style="shape=ext;double=1;rounded=1;whiteSpace=wrap;html=1;labelPosition=center;verticalLabelPosition=middle;align=center;verticalAlign=middle;" vertex="1" parent="1">
                    <mxGeometry x="680" y="180" width="70" height="195" as="geometry"/>
                </mxCell>
                <mxCell id="2" value="World Wide Web" style="ellipse;shape=cloud;whiteSpace=wrap;html=1;" parent="1" vertex="1">
                    <mxGeometry x="130" y="90" width="150" height="90" as="geometry"/>
                </mxCell>
                <mxCell id="7" value="Queue" style="shape=ext;double=1;rounded=1;whiteSpace=wrap;html=1;" parent="1" vertex="1">
                    <mxGeometry x="90" y="280" width="50" height="65" as="geometry"/>
                </mxCell>
                <mxCell id="39" style="edgeStyle=none;html=1;exitX=0.5;exitY=0;exitDx=0;exitDy=0;entryX=1;entryY=1;entryDx=0;entryDy=0;entryPerimeter=0;dashed=1;endArrow=none;endFill=0;" parent="1" source="8" target="38" edge="1">
                    <mxGeometry relative="1" as="geometry"/>
                </mxCell>
                <mxCell id="12" value="Multi-threaded Crawler | Spider" style="swimlane;" parent="1" vertex="1">
                    <mxGeometry x="320" y="200" width="270" height="180" as="geometry">
                        <mxRectangle x="290" y="210" width="160" height="23" as="alternateBounds"/>
                    </mxGeometry>
                </mxCell>
                <mxCell id="21" value="Main - Coordinator" style="rounded=0;whiteSpace=wrap;html=1;" parent="12" vertex="1">
                    <mxGeometry x="10" y="40" width="250" height="40" as="geometry"/>
                </mxCell>
                <mxCell id="22" value="Worker" style="rounded=0;whiteSpace=wrap;html=1;" parent="12" vertex="1">
                    <mxGeometry x="10" y="90" width="250" height="30" as="geometry"/>
                </mxCell>
                <mxCell id="23" value="Storage" style="rounded=0;whiteSpace=wrap;html=1;" parent="12" vertex="1">
                    <mxGeometry x="200" y="130" width="60" height="30" as="geometry"/>
                </mxCell>
                <mxCell id="24" value="Parser" style="rounded=0;whiteSpace=wrap;html=1;" parent="12" vertex="1">
                    <mxGeometry x="10" y="130" width="90" height="30" as="geometry"/>
                </mxCell>
                <mxCell id="25" value="Request" style="rounded=0;whiteSpace=wrap;html=1;" parent="12" vertex="1">
                    <mxGeometry x="110" y="130" width="80" height="30" as="geometry"/>
                </mxCell>
                <mxCell id="13" value="" style="edgeStyle=elbowEdgeStyle;elbow=vertical;endArrow=classic;html=1;entryX=0.5;entryY=0;entryDx=0;entryDy=0;exitX=0.875;exitY=0.5;exitDx=0;exitDy=0;exitPerimeter=0;startArrow=classic;startFill=1;" parent="1" source="2" target="12" edge="1">
                    <mxGeometry width="50" height="50" relative="1" as="geometry">
                        <mxPoint x="510" y="300" as="sourcePoint"/>
                        <mxPoint x="560" y="250" as="targetPoint"/>
                        <Array as="points">
                            <mxPoint x="360" y="135"/>
                        </Array>
                    </mxGeometry>
                </mxCell>
                <mxCell id="20" value="Website" style="edgeLabel;html=1;align=center;verticalAlign=middle;resizable=0;points=[];" parent="13" vertex="1" connectable="0">
                    <mxGeometry x="0.3555" relative="1" as="geometry">
                        <mxPoint x="-62" as="offset"/>
                    </mxGeometry>
                </mxCell>
                <mxCell id="14" value="" style="edgeStyle=elbowEdgeStyle;elbow=vertical;endArrow=classic;html=1;exitX=1;exitY=0.5;exitDx=0;exitDy=0;entryX=0;entryY=0.75;entryDx=0;entryDy=0;" parent="1" source="23" target="8" edge="1">
                    <mxGeometry width="50" height="50" relative="1" as="geometry">
                        <mxPoint x="570" y="380" as="sourcePoint"/>
                        <mxPoint x="695" y="310" as="targetPoint"/>
                        <Array as="points"/>
                    </mxGeometry>
                </mxCell>
                <mxCell id="19" value="Data" style="edgeLabel;html=1;align=center;verticalAlign=middle;resizable=0;points=[];" parent="14" vertex="1" connectable="0">
                    <mxGeometry x="-0.2222" y="1" relative="1" as="geometry">
                        <mxPoint x="9" y="1" as="offset"/>
                    </mxGeometry>
                </mxCell>
                <mxCell id="15" value="" style="edgeStyle=elbowEdgeStyle;elbow=horizontal;endArrow=classic;html=1;exitX=0;exitY=0.5;exitDx=0;exitDy=0;entryX=1;entryY=0.5;entryDx=0;entryDy=0;" parent="1" source="22" target="42" edge="1">
                    <mxGeometry width="50" height="50" relative="1" as="geometry">
                        <mxPoint x="300" y="480" as="sourcePoint"/>
                        <mxPoint x="240" y="305" as="targetPoint"/>
                    </mxGeometry>
                </mxCell>
                <mxCell id="17" value="URLs" style="edgeLabel;html=1;align=center;verticalAlign=middle;resizable=0;points=[];" parent="15" vertex="1" connectable="0">
                    <mxGeometry x="0.1753" relative="1" as="geometry">
                        <mxPoint as="offset"/>
                    </mxGeometry>
                </mxCell>
                <mxCell id="16" value="" style="edgeStyle=elbowEdgeStyle;elbow=horizontal;endArrow=classic;html=1;exitX=0;exitY=0.5;exitDx=0;exitDy=0;entryX=0;entryY=0.5;entryDx=0;entryDy=0;" parent="1" source="7" target="21" edge="1">
                    <mxGeometry width="50" height="50" relative="1" as="geometry">
                        <mxPoint x="180" y="235" as="sourcePoint"/>
                        <mxPoint x="280" y="380" as="targetPoint"/>
                        <Array as="points">
                            <mxPoint x="60" y="290"/>
                            <mxPoint x="210" y="230"/>
                            <mxPoint x="40" y="230"/>
                            <mxPoint x="50" y="210"/>
                        </Array>
                    </mxGeometry>
                </mxCell>
                <mxCell id="18" value="URLs" style="edgeLabel;html=1;align=center;verticalAlign=middle;resizable=0;points=[];" parent="16" vertex="1" connectable="0">
                    <mxGeometry x="-0.2116" y="-1" relative="1" as="geometry">
                        <mxPoint as="offset"/>
                    </mxGeometry>
                </mxCell>
                <mxCell id="38" value="Every URL gets a new directory" style="shape=note;size=20;whiteSpace=wrap;html=1;" parent="1" vertex="1">
                    <mxGeometry x="550" y="70" width="100" height="100" as="geometry"/>
                </mxCell>
                <mxCell id="42" value="Visit URL ?" style="rhombus;whiteSpace=wrap;html=1;" parent="1" vertex="1">
                    <mxGeometry x="190" y="265" width="80" height="80" as="geometry"/>
                </mxCell>
                <mxCell id="43" value="Yes" style="edgeStyle=elbowEdgeStyle;elbow=vertical;endArrow=classic;html=1;exitX=0;exitY=0.5;exitDx=0;exitDy=0;entryX=1;entryY=0.5;entryDx=0;entryDy=0;" parent="1" source="42" target="7" edge="1">
                    <mxGeometry width="50" height="50" relative="1" as="geometry">
                        <mxPoint x="80" y="315" as="sourcePoint"/>
                        <mxPoint x="70" y="245" as="targetPoint"/>
                        <Array as="points"/>
                    </mxGeometry>
                </mxCell>
                <mxCell id="44" value="No" style="edgeStyle=elbowEdgeStyle;elbow=vertical;endArrow=baseDash;html=1;exitX=0.5;exitY=1;exitDx=0;exitDy=0;strokeColor=default;endFill=0;" parent="1" source="42" edge="1">
                    <mxGeometry x="-0.44" width="50" height="50" relative="1" as="geometry">
                        <mxPoint x="200" y="315" as="sourcePoint"/>
                        <mxPoint x="200" y="410" as="targetPoint"/>
                        <Array as="points">
                            <mxPoint x="230" y="410"/>
                        </Array>
                        <mxPoint as="offset"/>
                    </mxGeometry>
                </mxCell>
                <mxCell id="8" value="Storage" style="shape=ext;double=1;rounded=1;whiteSpace=wrap;html=1;labelPosition=center;verticalLabelPosition=bottom;align=center;verticalAlign=top;" parent="1" vertex="1">
                    <mxGeometry x="660" y="190" width="70" height="195" as="geometry"/>
                </mxCell>
                <mxCell id="29" value="HTML" style="rounded=1;whiteSpace=wrap;html=1;" parent="1" vertex="1">
                    <mxGeometry x="670" y="265" width="50" height="20" as="geometry"/>
                </mxCell>
                <mxCell id="30" value="CSS" style="rounded=1;whiteSpace=wrap;html=1;" parent="1" vertex="1">
                    <mxGeometry x="670" y="295" width="50" height="20" as="geometry"/>
                </mxCell>
                <mxCell id="31" value="JS" style="rounded=1;whiteSpace=wrap;html=1;" parent="1" vertex="1">
                    <mxGeometry x="670" y="325" width="50" height="20" as="geometry"/>
                </mxCell>
                <mxCell id="32" value="IMAGE" style="rounded=1;whiteSpace=wrap;html=1;" parent="1" vertex="1">
                    <mxGeometry x="670" y="355" width="50" height="20" as="geometry"/>
                </mxCell>
                <mxCell id="33" value="OTHER" style="rounded=1;whiteSpace=wrap;html=1;" parent="1" vertex="1">
                    <mxGeometry x="670" y="235" width="50" height="20" as="geometry"/>
                </mxCell>
                <mxCell id="QLBxTetBfzA6RJk5GTU--44" value="LINK" style="rounded=1;whiteSpace=wrap;html=1;" vertex="1" parent="1">
                    <mxGeometry x="670" y="205" width="50" height="20" as="geometry"/>
                </mxCell>
            </root>
        </mxGraphModel>
    </diagram>
    <diagram id="MkIfEwh1DUQYhwwi2Ah6" name="Seite-2">
        <mxGraphModel dx="1588" dy="956" grid="1" gridSize="10" guides="1" tooltips="1" connect="1" arrows="1" fold="1" page="1" pageScale="1" pageWidth="50" pageHeight="50" math="0" shadow="0">
            <root>
                <mxCell id="UjlVaIixLrysHMbX3iTx-0"/>
                <mxCell id="UjlVaIixLrysHMbX3iTx-1" parent="UjlVaIixLrysHMbX3iTx-0"/>
                <mxCell id="24zscsqhcBphjQlm6mzy-0" value="Actor" style="shape=umlActor;verticalLabelPosition=bottom;verticalAlign=top;html=1;outlineConnect=0;" vertex="1" parent="UjlVaIixLrysHMbX3iTx-1">
                    <mxGeometry x="-420" y="-170" width="30" height="60" as="geometry"/>
                </mxCell>
                <mxCell id="24zscsqhcBphjQlm6mzy-1" value="" style="rounded=0;whiteSpace=wrap;html=1;" vertex="1" parent="UjlVaIixLrysHMbX3iTx-1">
                    <mxGeometry x="-250" y="-150" width="50" height="440" as="geometry"/>
                </mxCell>
                <mxCell id="24zscsqhcBphjQlm6mzy-2" value="" style="rounded=0;whiteSpace=wrap;html=1;" vertex="1" parent="UjlVaIixLrysHMbX3iTx-1">
                    <mxGeometry x="50" y="-67" width="50" height="337" as="geometry"/>
                </mxCell>
                <mxCell id="24zscsqhcBphjQlm6mzy-3" value="" style="endArrow=classic;html=1;entryX=0;entryY=0;entryDx=0;entryDy=0;exitX=0.996;exitY=0.156;exitDx=0;exitDy=0;exitPerimeter=0;" edge="1" parent="UjlVaIixLrysHMbX3iTx-1" source="24zscsqhcBphjQlm6mzy-41" target="24zscsqhcBphjQlm6mzy-2">
                    <mxGeometry width="50" height="50" relative="1" as="geometry">
                        <mxPoint x="-170" y="-67" as="sourcePoint"/>
                        <mxPoint x="50" y="30" as="targetPoint"/>
                    </mxGeometry>
                </mxCell>
                <mxCell id="24zscsqhcBphjQlm6mzy-35" value="Create Thread for URL" style="edgeLabel;html=1;align=center;verticalAlign=middle;resizable=0;points=[];" vertex="1" connectable="0" parent="24zscsqhcBphjQlm6mzy-3">
                    <mxGeometry x="-0.6263" relative="1" as="geometry">
                        <mxPoint x="73" y="-2" as="offset"/>
                    </mxGeometry>
                </mxCell>
                <mxCell id="24zscsqhcBphjQlm6mzy-4" value="main" style="rounded=0;whiteSpace=wrap;html=1;" vertex="1" parent="UjlVaIixLrysHMbX3iTx-1">
                    <mxGeometry x="-262" y="-240" width="75" height="40" as="geometry"/>
                </mxCell>
                <mxCell id="24zscsqhcBphjQlm6mzy-8" value="" style="endArrow=none;dashed=1;html=1;entryX=0.5;entryY=1;entryDx=0;entryDy=0;" edge="1" parent="UjlVaIixLrysHMbX3iTx-1" source="24zscsqhcBphjQlm6mzy-1" target="24zscsqhcBphjQlm6mzy-4">
                    <mxGeometry width="50" height="50" relative="1" as="geometry">
                        <mxPoint x="-150" y="-140" as="sourcePoint"/>
                        <mxPoint x="-100" y="-190" as="targetPoint"/>
                    </mxGeometry>
                </mxCell>
                <mxCell id="24zscsqhcBphjQlm6mzy-9" value="Worker&lt;br&gt;Thread" style="rounded=0;whiteSpace=wrap;html=1;" vertex="1" parent="UjlVaIixLrysHMbX3iTx-1">
                    <mxGeometry x="29" y="-240" width="93" height="40" as="geometry"/>
                </mxCell>
                <mxCell id="24zscsqhcBphjQlm6mzy-10" value="" style="endArrow=none;dashed=1;html=1;entryX=0.5;entryY=0;entryDx=0;entryDy=0;exitX=0.5;exitY=1;exitDx=0;exitDy=0;" edge="1" parent="UjlVaIixLrysHMbX3iTx-1" source="24zscsqhcBphjQlm6mzy-9" target="24zscsqhcBphjQlm6mzy-2">
                    <mxGeometry width="50" height="50" relative="1" as="geometry">
                        <mxPoint x="-50" y="-140" as="sourcePoint"/>
                        <mxPoint y="-190" as="targetPoint"/>
                    </mxGeometry>
                </mxCell>
                <mxCell id="24zscsqhcBphjQlm6mzy-13" value="Start Spider&amp;nbsp;&lt;br&gt;with given Instructions" style="endArrow=classic;html=1;entryX=0;entryY=0;entryDx=0;entryDy=0;exitX=1;exitY=0.3333333333333333;exitDx=0;exitDy=0;exitPerimeter=0;" edge="1" parent="UjlVaIixLrysHMbX3iTx-1" source="24zscsqhcBphjQlm6mzy-0" target="24zscsqhcBphjQlm6mzy-1">
                    <mxGeometry width="50" height="50" relative="1" as="geometry">
                        <mxPoint x="-340" y="-100" as="sourcePoint"/>
                        <mxPoint x="-290" y="-150" as="targetPoint"/>
                    </mxGeometry>
                </mxCell>
                <mxCell id="24zscsqhcBphjQlm6mzy-15" value="Internet / Website" style="rounded=0;whiteSpace=wrap;html=1;" vertex="1" parent="UjlVaIixLrysHMbX3iTx-1">
                    <mxGeometry x="265" y="-240" width="120" height="40" as="geometry"/>
                </mxCell>
                <mxCell id="24zscsqhcBphjQlm6mzy-16" value="" style="rounded=0;whiteSpace=wrap;html=1;" vertex="1" parent="UjlVaIixLrysHMbX3iTx-1">
                    <mxGeometry x="300" y="-42" width="50" height="80" as="geometry"/>
                </mxCell>
                <mxCell id="24zscsqhcBphjQlm6mzy-17" value="" style="endArrow=none;dashed=1;html=1;dashPattern=1 3;strokeWidth=2;entryX=0.5;entryY=1;entryDx=0;entryDy=0;exitX=0.5;exitY=0;exitDx=0;exitDy=0;" edge="1" parent="UjlVaIixLrysHMbX3iTx-1" source="24zscsqhcBphjQlm6mzy-16" target="24zscsqhcBphjQlm6mzy-15">
                    <mxGeometry width="50" height="50" relative="1" as="geometry">
                        <mxPoint x="290" y="-130" as="sourcePoint"/>
                        <mxPoint x="340" y="-180" as="targetPoint"/>
                    </mxGeometry>
                </mxCell>
                <mxCell id="24zscsqhcBphjQlm6mzy-18" value="" style="endArrow=classic;html=1;entryX=0;entryY=0;entryDx=0;entryDy=0;" edge="1" parent="UjlVaIixLrysHMbX3iTx-1" target="24zscsqhcBphjQlm6mzy-16">
                    <mxGeometry width="50" height="50" relative="1" as="geometry">
                        <mxPoint x="100" y="-42" as="sourcePoint"/>
                        <mxPoint x="210" y="-42" as="targetPoint"/>
                    </mxGeometry>
                </mxCell>
                <mxCell id="24zscsqhcBphjQlm6mzy-20" value="Http get request" style="edgeLabel;html=1;align=center;verticalAlign=middle;resizable=0;points=[];" vertex="1" connectable="0" parent="24zscsqhcBphjQlm6mzy-18">
                    <mxGeometry x="-0.254" y="-1" relative="1" as="geometry">
                        <mxPoint as="offset"/>
                    </mxGeometry>
                </mxCell>
                <mxCell id="24zscsqhcBphjQlm6mzy-19" value="Http response" style="endArrow=classic;html=1;exitX=0;exitY=1;exitDx=0;exitDy=0;entryX=1.037;entryY=0.305;entryDx=0;entryDy=0;dashed=1;entryPerimeter=0;" edge="1" parent="UjlVaIixLrysHMbX3iTx-1" source="24zscsqhcBphjQlm6mzy-16" target="24zscsqhcBphjQlm6mzy-2">
                    <mxGeometry x="-0.0943" width="50" height="50" relative="1" as="geometry">
                        <mxPoint x="180" y="58" as="sourcePoint"/>
                        <mxPoint x="230" y="8" as="targetPoint"/>
                        <mxPoint as="offset"/>
                    </mxGeometry>
                </mxCell>
                <mxCell id="24zscsqhcBphjQlm6mzy-21" value="" style="endArrow=none;dashed=1;html=1;dashPattern=1 3;strokeWidth=2;entryX=0.5;entryY=1;entryDx=0;entryDy=0;exitX=0.5;exitY=0;exitDx=0;exitDy=0;" edge="1" parent="UjlVaIixLrysHMbX3iTx-1" source="24zscsqhcBphjQlm6mzy-22" target="24zscsqhcBphjQlm6mzy-16">
                    <mxGeometry width="50" height="50" relative="1" as="geometry">
                        <mxPoint x="325" y="68" as="sourcePoint"/>
                        <mxPoint x="350" y="58" as="targetPoint"/>
                    </mxGeometry>
                </mxCell>
                <mxCell id="24zscsqhcBphjQlm6mzy-22" value="" style="rounded=0;whiteSpace=wrap;html=1;" vertex="1" parent="UjlVaIixLrysHMbX3iTx-1">
                    <mxGeometry x="300" y="100" width="50" height="150" as="geometry"/>
                </mxCell>
                <mxCell id="24zscsqhcBphjQlm6mzy-23" value="Download and Store Data" style="rounded=0;whiteSpace=wrap;html=1;horizontal=0;" vertex="1" parent="UjlVaIixLrysHMbX3iTx-1">
                    <mxGeometry x="75" y="80" width="50" height="170" as="geometry"/>
                </mxCell>
                <mxCell id="24zscsqhcBphjQlm6mzy-24" value="" style="endArrow=classic;html=1;dashed=1;exitX=0;exitY=1;exitDx=0;exitDy=0;entryX=1;entryY=1;entryDx=0;entryDy=0;" edge="1" parent="UjlVaIixLrysHMbX3iTx-1" source="24zscsqhcBphjQlm6mzy-22" target="24zscsqhcBphjQlm6mzy-23">
                    <mxGeometry width="50" height="50" relative="1" as="geometry">
                        <mxPoint x="210" y="128" as="sourcePoint"/>
                        <mxPoint x="130" y="148" as="targetPoint"/>
                    </mxGeometry>
                </mxCell>
                <mxCell id="24zscsqhcBphjQlm6mzy-25" value="" style="endArrow=classic;html=1;dashed=1;entryX=0;entryY=0;entryDx=0;entryDy=0;exitX=1.037;exitY=0.112;exitDx=0;exitDy=0;exitPerimeter=0;" edge="1" parent="UjlVaIixLrysHMbX3iTx-1" source="24zscsqhcBphjQlm6mzy-23" target="24zscsqhcBphjQlm6mzy-22">
                    <mxGeometry width="50" height="50" relative="1" as="geometry">
                        <mxPoint x="130" y="68" as="sourcePoint"/>
                        <mxPoint x="230" y="78" as="targetPoint"/>
                    </mxGeometry>
                </mxCell>
                <mxCell id="24zscsqhcBphjQlm6mzy-26" value="URL Queue" style="shape=cylinder3;whiteSpace=wrap;html=1;boundedLbl=1;backgroundOutline=1;size=15;" vertex="1" parent="UjlVaIixLrysHMbX3iTx-1">
                    <mxGeometry x="495" y="-280" width="60" height="80" as="geometry"/>
                </mxCell>
                <mxCell id="24zscsqhcBphjQlm6mzy-27" value="" style="endArrow=none;dashed=1;html=1;dashPattern=1 3;strokeWidth=2;entryX=0.5;entryY=1;entryDx=0;entryDy=0;entryPerimeter=0;exitX=0.5;exitY=0;exitDx=0;exitDy=0;" edge="1" parent="UjlVaIixLrysHMbX3iTx-1" source="24zscsqhcBphjQlm6mzy-28" target="24zscsqhcBphjQlm6mzy-26">
                    <mxGeometry width="50" height="50" relative="1" as="geometry">
                        <mxPoint x="500" y="-130" as="sourcePoint"/>
                        <mxPoint x="550" y="-180" as="targetPoint"/>
                    </mxGeometry>
                </mxCell>
                <mxCell id="24zscsqhcBphjQlm6mzy-28" value="" style="rounded=0;whiteSpace=wrap;html=1;" vertex="1" parent="UjlVaIixLrysHMbX3iTx-1">
                    <mxGeometry x="500" y="-150" width="50" height="440" as="geometry"/>
                </mxCell>
                <mxCell id="24zscsqhcBphjQlm6mzy-29" value="" style="endArrow=classic;html=1;entryX=0.01;entryY=0.018;entryDx=0;entryDy=0;entryPerimeter=0;" edge="1" parent="UjlVaIixLrysHMbX3iTx-1" target="24zscsqhcBphjQlm6mzy-28">
                    <mxGeometry width="50" height="50" relative="1" as="geometry">
                        <mxPoint x="-200" y="-140" as="sourcePoint"/>
                        <mxPoint x="500" y="-130" as="targetPoint"/>
                    </mxGeometry>
                </mxCell>
                <mxCell id="24zscsqhcBphjQlm6mzy-30" value="Fill Queue with start URL's" style="edgeLabel;html=1;align=center;verticalAlign=middle;resizable=0;points=[];" vertex="1" connectable="0" parent="24zscsqhcBphjQlm6mzy-29">
                    <mxGeometry x="-0.7" y="1" relative="1" as="geometry">
                        <mxPoint as="offset"/>
                    </mxGeometry>
                </mxCell>
                <mxCell id="24zscsqhcBphjQlm6mzy-31" value="" style="endArrow=classic;html=1;entryX=-0.004;entryY=0.063;entryDx=0;entryDy=0;entryPerimeter=0;exitX=1.037;exitY=0.022;exitDx=0;exitDy=0;exitPerimeter=0;" edge="1" parent="UjlVaIixLrysHMbX3iTx-1" source="24zscsqhcBphjQlm6mzy-41" target="24zscsqhcBphjQlm6mzy-28">
                    <mxGeometry width="50" height="50" relative="1" as="geometry">
                        <mxPoint x="-160" y="-121" as="sourcePoint"/>
                        <mxPoint x="200" y="-120" as="targetPoint"/>
                    </mxGeometry>
                </mxCell>
                <mxCell id="24zscsqhcBphjQlm6mzy-32" value="Get URL" style="edgeLabel;html=1;align=center;verticalAlign=middle;resizable=0;points=[];" vertex="1" connectable="0" parent="24zscsqhcBphjQlm6mzy-31">
                    <mxGeometry x="0.493" relative="1" as="geometry">
                        <mxPoint as="offset"/>
                    </mxGeometry>
                </mxCell>
                <mxCell id="24zscsqhcBphjQlm6mzy-33" value="" style="endArrow=classic;html=1;dashed=1;entryX=1.01;entryY=0.073;entryDx=0;entryDy=0;entryPerimeter=0;" edge="1" parent="UjlVaIixLrysHMbX3iTx-1" target="24zscsqhcBphjQlm6mzy-41">
                    <mxGeometry width="50" height="50" relative="1" as="geometry">
                        <mxPoint x="500" y="-100" as="sourcePoint"/>
                        <mxPoint x="-170" y="-100" as="targetPoint"/>
                    </mxGeometry>
                </mxCell>
                <mxCell id="24zscsqhcBphjQlm6mzy-34" value="URL" style="edgeLabel;html=1;align=center;verticalAlign=middle;resizable=0;points=[];" vertex="1" connectable="0" parent="24zscsqhcBphjQlm6mzy-33">
                    <mxGeometry x="0.5086" y="3" relative="1" as="geometry">
                        <mxPoint as="offset"/>
                    </mxGeometry>
                </mxCell>
                <mxCell id="24zscsqhcBphjQlm6mzy-37" value="" style="endArrow=classic;html=1;entryX=-0.032;entryY=0.476;entryDx=0;entryDy=0;exitX=0.996;exitY=0.381;exitDx=0;exitDy=0;exitPerimeter=0;entryPerimeter=0;" edge="1" parent="UjlVaIixLrysHMbX3iTx-1" source="24zscsqhcBphjQlm6mzy-2" target="24zscsqhcBphjQlm6mzy-28">
                    <mxGeometry width="50" height="50" relative="1" as="geometry">
                        <mxPoint x="400" y="90" as="sourcePoint"/>
                        <mxPoint x="500" y="50" as="targetPoint"/>
                    </mxGeometry>
                </mxCell>
                <mxCell id="24zscsqhcBphjQlm6mzy-38" value="Add new URL's" style="edgeLabel;html=1;align=center;verticalAlign=middle;resizable=0;points=[];" vertex="1" connectable="0" parent="24zscsqhcBphjQlm6mzy-37">
                    <mxGeometry x="-0.3919" y="-1" relative="1" as="geometry">
                        <mxPoint as="offset"/>
                    </mxGeometry>
                </mxCell>
                <mxCell id="24zscsqhcBphjQlm6mzy-40" value="" style="endArrow=classic;html=1;exitX=0;exitY=1;exitDx=0;exitDy=0;dashed=1;entryX=1.037;entryY=0.975;entryDx=0;entryDy=0;entryPerimeter=0;" edge="1" parent="UjlVaIixLrysHMbX3iTx-1" source="24zscsqhcBphjQlm6mzy-2" target="24zscsqhcBphjQlm6mzy-41">
                    <mxGeometry width="50" height="50" relative="1" as="geometry">
                        <mxPoint x="-90" y="300" as="sourcePoint"/>
                        <mxPoint x="-200" y="270" as="targetPoint"/>
                    </mxGeometry>
                </mxCell>
                <mxCell id="24zscsqhcBphjQlm6mzy-41" value="ThreadPoolExecutor" style="rounded=0;whiteSpace=wrap;html=1;horizontal=0;" vertex="1" parent="UjlVaIixLrysHMbX3iTx-1">
                    <mxGeometry x="-225" y="-130" width="50" height="410" as="geometry"/>
                </mxCell>
            </root>
        </mxGraphModel>
    </diagram>
</mxfile>